<?xml version="1.0" standalone="no"?>
<!DOCTYPE svg PUBLIC "-//W3C//DTD SVG 20010904//EN"
 "http://www.w3.org/TR/2001/REC-SVG-20010904/DTD/svg10.dtd">
<svg version="1.0" xmlns="http://www.w3.org/2000/svg"
 width="256.000000pt" height="256.000000pt" viewBox="0 0 256.000000 256.000000"
 preserveAspectRatio="xMidYMid meet">

<g transform="translate(0.000000,256.000000) scale(0.100000,-0.100000)"
fill="#000000" stroke="none">
<path d="M1425 2196 c-223 -315 -365 -569 -473 -848 -45 -114 -96 -308 -107
-404 -11 -100 -11 -99 -57 -59 -23 19 -43 34 -44 32 -1 -1 15 -38 36 -82 21
-44 41 -95 44 -114 l6 -34 -50 5 c-53 5 -56 -3 -8 -28 l30 -16 -52 -24 c-54
-25 -65 -43 -16 -24 15 5 44 10 65 10 l38 0 -87 -268 c-48 -147 -91 -283 -95
-302 -6 -31 -5 -33 7 -20 8 8 50 123 92 255 232 714 473 1292 723 1728 47 82
83 150 81 151 -3 3 -119 56 -122 56 0 0 -6 -6 -11 -14z"/>
<path d="M1546 2077 c-166 -260 -410 -803 -600 -1338 l-52 -146 33 -38 c37
-43 43 -37 13 13 -11 18 -20 35 -20 37 0 3 22 5 49 5 80 0 176 35 222 81 42
42 46 59 11 40 -12 -6 -33 -11 -49 -11 -27 1 -27 1 11 21 42 23 126 102 145
138 11 20 7 19 -45 -10 -48 -28 -69 -33 -138 -36 l-81 -3 68 24 c92 33 156 76
230 156 67 72 138 197 181 316 29 80 31 88 16 79 -6 -4 -25 -10 -43 -15 l-32
-9 25 17 c47 32 99 83 119 117 l19 33 -31 -13 c-71 -29 -81 -27 -32 6 28 19
64 55 82 82 32 47 78 156 69 164 -2 2 -25 -3 -50 -11 -63 -21 -79 -19 -35 4
20 11 54 39 76 64 48 55 108 165 97 176 -5 5 -58 31 -117 59 l-108 50 -33 -52z"/>
</g>
</svg>
